# xmcd
# Track frame offsets:
# 182
# 19437
# 40565
# 59102
# 82332
# 101485
# 124655
# 139697
# 155612
# 174992
# 189450
#
# Disc length: 2946 seconds
# Revision: 0
# Processed by: cddbd v1.4PL0 Copyright (c) Steve Scherf et al.
# Submitted via: VisiTrax 2.9.5.181 - For more info visit www.synapsa.com
#
DISCID=960b800b
DTITLE=John Mayall and The Bluesbreakers - Spinning Coin
DYEAR=1995
DGENRE=
TTITLE0=When The Devil Starts Crying
TTITLE1=Spinning Coin
TTITLE2=Ain't No Brakeman
TTITLE3=Double Life Feelings
TTITLE4=Run
TTITLE5=What Passes For Love
TTITLE6=Fan The Flames
TTITLE7=Voodoo Music
TTITLE8=Long Story Short
TTITLE9=No Big Hurry
TTITLE10=Remember This
EXTD=
EXTT0=
EXTT1=
EXTT2=
EXTT3=
EXTT4=
EXTT5=
EXTT6=
EXTT7=
EXTT8=
EXTT9=
EXTT10=
PLAYORDER=
